<?xml version="1.0" encoding="utf-8"?>
<!-- Generator: Adobe Illustrator 21.0.0, SVG Export Plug-In . SVG Version: 6.00 Build 0)  -->
<svg version="1.1" id="Layer_1" xmlns="http://www.w3.org/2000/svg" xmlns:xlink="http://www.w3.org/1999/xlink" x="0px" y="0px"
	 viewBox="0 0 32 32" style="enable-background:new 0 0 32 32;" xml:space="preserve">
<style type="text/css">
	.st0{fill:#FFFFFF;}
</style>
<g>
	<path class="st0" d="M25.4,3.4v25.2c3.8-2.9,6.3-7.4,6.3-12.6S29.2,6.3,25.4,3.4z"/>
	<path class="st0" d="M8.2,29.7c0.8,0.5,1.7,0.9,2.6,1.2V1.2C9.9,1.5,9,1.9,8.2,2.4V29.7z"/>
	<path class="st0" d="M12.6,0.7l11.3,27.9V2.3c-2.3-1.3-5-2-7.8-2C14.8,0.3,13.7,0.5,12.6,0.7z"/>
	<path class="st0" d="M0.3,16c0,5.1,2.5,9.7,6.2,12.5V3.5C2.8,6.4,0.3,10.9,0.3,16z"/>
	<path class="st0" d="M12.4,31.3c1.2,0.3,2.4,0.4,3.6,0.4c2.4,0,4.7-0.6,6.8-1.5L12.4,4.4V31.3z"/>
</g>
</svg>
