<?xml version="1.0" encoding="utf-8"?>
<!-- Generator: Adobe Illustrator 21.0.0, SVG Export Plug-In . SVG Version: 6.00 Build 0)  -->
<svg version="1.1" id="Layer_1" xmlns="http://www.w3.org/2000/svg" xmlns:xlink="http://www.w3.org/1999/xlink" x="0px" y="0px"
	 viewBox="0 0 300 67.3" style="enable-background:new 0 0 300 67.3;" xml:space="preserve">
<style type="text/css">
	.st0{fill:#FFFFFF;}
</style>
<g>
	<path class="st0" d="M98.9,6.7h3.3v17.6h-3.3V6.7z"/>
	<path class="st0" d="M116.5,6.7l4.4,13.6l4.4-13.6h3.4l-6.2,17.6h-3.4L113,6.7H116.5z"/>
	<path class="st0" d="M140.7,6.7l4,7l4.1-7h3.8L146.3,17v7.3H143V17l-6.2-10.3H140.7z"/>
	<path class="st0" d="M167,6.7l7.9,12.5V6.7h3.3v17.6h-3.3l-8.2-12.9v12.9h-3.3V6.7H167z"/>
	<path class="st0" d="M200.4,21.5c-0.8,2.1-2.3,3.2-4.5,3.2c-2.2,0-4.1-0.8-5.6-2.5c-1.5-1.7-2.3-3.9-2.3-6.6c0-2.8,0.8-5.1,2.4-6.8
		c1.6-1.6,3.6-2.5,6.1-2.5c1.7,0,3.1,0.4,4.2,1.1c1.1,0.7,2,1.8,2.7,3.4l-3.3,0.8c-1-1.5-2.2-2.3-3.7-2.3c-1.4,0-2.5,0.6-3.4,1.7
		c-0.9,1.2-1.4,2.7-1.4,4.6c0,1.8,0.4,3.3,1.3,4.4c0.8,1.1,1.9,1.7,3.3,1.7c1.2,0,2.1-0.4,2.9-1.1c0.8-0.8,1.2-1.8,1.2-3.1v-0.1
		l-4-0.1v-2.1h7.2v9h-2.7L200.4,21.5z"/>
	<path class="st0" d="M217.2,6.7v10.9c0,1.4,0.4,2.5,1.1,3.1c0.7,0.6,1.7,0.9,2.9,0.9c1.2,0,2.1-0.3,2.9-0.9
		c0.7-0.6,1.1-1.7,1.1-3.1V6.7h3.3v10.9c0,2.2-0.6,4-1.9,5.2c-1.3,1.2-3.1,1.8-5.4,1.8c-2.3,0-4.1-0.6-5.4-1.8
		c-1.3-1.2-1.9-2.9-1.9-5.2V6.7H217.2z"/>
	<path class="st0" d="M240.5,6.7l4,7l4.1-7h3.8L246.1,17v7.3h-3.3V17l-6.2-10.3H240.5z"/>
	<path class="st0" d="M261.9,6.7h11.6v2.8h-8.3v4.6h7.8v2.8h-7.8v4.6h8.3v2.8h-11.6V6.7z"/>
	<path class="st0" d="M287.7,6.7l7.9,12.5V6.7h3.3v17.6h-3.3l-8.2-12.9v12.9h-3.3V6.7H287.7z"/>
	<path class="st0" d="M104.7,43.1c2.7,0,4.9,0.8,6.6,2.4c1.7,1.6,2.5,3.7,2.5,6.4c0,2.7-0.8,4.8-2.5,6.4c-1.7,1.6-3.9,2.4-6.6,2.4
		h-5.8V43.1H104.7z M102.1,57.8h2.5c1.7,0,3.1-0.6,4.1-1.7c1-1.1,1.5-2.5,1.5-4.2c0-1.8-0.5-3.2-1.5-4.2c-1-1.1-2.4-1.7-4.1-1.7
		h-2.5V57.8z"/>
	<path class="st0" d="M124.5,43.1H136v2.8h-8.3v4.6h7.8v2.8h-7.8v4.6h8.3v2.8h-11.6V43.1z"/>
	<path class="st0" d="M157.3,48c-0.3-1.5-1.4-2.3-3.3-2.3c-0.9,0-1.7,0.2-2.2,0.6c-0.5,0.4-0.8,0.8-0.8,1.3c0,0.5,0.2,0.9,0.5,1.2
		c0.3,0.3,0.9,0.6,1.6,0.8l3.9,1.5c1.3,0.5,2.4,1.1,3.1,1.9s1.1,1.7,1.1,2.9c0,1.6-0.6,2.8-1.8,3.8c-1.2,0.9-3,1.4-5.2,1.4
		c-2,0-3.6-0.5-4.8-1.4c-1.4-1-2.1-2.5-2.2-4.4h3.2c0,1.4,0.8,2.4,2.3,2.7c0.5,0.1,1.1,0.2,1.8,0.2s1.5-0.2,2.1-0.6s1-0.9,1-1.5
		c0-0.6-0.2-1.1-0.5-1.4c-0.4-0.3-0.9-0.6-1.7-0.9l-3.6-1.4c-1.4-0.5-2.4-1.1-3.2-1.8c-0.7-0.7-1.1-1.7-1.1-2.9
		c0-1.5,0.6-2.6,1.7-3.5c1.2-0.9,2.8-1.3,4.8-1.3s3.6,0.5,4.7,1.4c1.1,0.9,1.7,2.2,1.9,3.8H157.3z"/>
	<path class="st0" d="M173.3,43.1h3.3v17.6h-3.3V43.1z"/>
	<path class="st0" d="M200.4,57.9c-0.8,2.1-2.3,3.2-4.5,3.2c-2.2,0-4.1-0.8-5.6-2.5c-1.5-1.7-2.3-3.9-2.3-6.6c0-2.8,0.8-5.1,2.4-6.8
		c1.6-1.6,3.6-2.5,6.1-2.5c1.7,0,3.1,0.4,4.2,1.1s2,1.8,2.7,3.4l-3.3,0.8c-1-1.5-2.2-2.3-3.7-2.3c-1.4,0-2.5,0.6-3.4,1.7
		c-0.9,1.2-1.4,2.7-1.4,4.6c0,1.8,0.4,3.3,1.3,4.4c0.8,1.1,1.9,1.7,3.3,1.7c1.2,0,2.1-0.4,2.9-1.1c0.8-0.8,1.2-1.8,1.2-3.1v-0.1
		l-4-0.1v-2.1h7.2v9h-2.7L200.4,57.9z"/>
	<path class="st0" d="M219.4,43.1l7.9,12.5V43.1h3.3v17.6h-3.3l-8.2-12.9v12.9h-3.3V43.1H219.4z"/>
</g>
<g>
	<path class="st0" d="M49.1,6.1v49.2c7.5-5.6,12.3-14.5,12.3-24.6S56.6,11.7,49.1,6.1z"/>
	<path class="st0" d="M15.4,57.4c1.6,0.9,3.3,1.7,5.1,2.3V1.8c-1.8,0.6-3.5,1.4-5.1,2.3V57.4z"/>
	<path class="st0" d="M24,0.7L46,55.3V4c-4.5-2.6-9.7-4-15.3-4C28.4,0,26.2,0.3,24,0.7z"/>
	<path class="st0" d="M0,30.7c0,10,4.8,18.9,12.2,24.5v-49C4.8,11.9,0,20.7,0,30.7z"/>
	<path class="st0" d="M23.6,60.6c2.3,0.5,4.7,0.8,7.1,0.8c4.7,0,9.2-1.1,13.3-3L23.6,8.1V60.6z"/>
</g>
<g>
</g>
<g>
</g>
<g>
</g>
<g>
</g>
<g>
</g>
<g>
</g>
<g>
</g>
<g>
</g>
<g>
</g>
<g>
</g>
<g>
</g>
<g>
</g>
<g>
</g>
<g>
</g>
<g>
</g>
</svg>
