<?xml version="1.0" encoding="utf-8"?>
<!-- Generator: Adobe Illustrator 21.0.0, SVG Export Plug-In . SVG Version: 6.00 Build 0)  -->
<svg version="1.1" id="Layer_1" xmlns="http://www.w3.org/2000/svg" xmlns:xlink="http://www.w3.org/1999/xlink" x="0px" y="0px"
	 viewBox="0 0 94.6 94.6" style="enable-background:new 0 0 94.6 94.6;" xml:space="preserve">
<g>
	<path d="M75.6,9.4v75.8c11.6-8.6,19-22.3,19-37.9S87.2,18,75.6,9.4z"/>
	<path d="M23.7,88.4c2.5,1.4,5.1,2.6,7.9,3.5V2.8c-2.8,0.9-5.4,2.2-7.9,3.5V88.4z"/>
	<path d="M37,1.1l33.9,84.1v-79C63.9,2.2,55.9,0,47.3,0C43.8,0,40.4,0.5,37,1.1z"/>
	<path d="M0,47.3C0,62.7,7.4,76.4,18.8,85V9.6C7.4,18.3,0,31.9,0,47.3z"/>
	<path d="M36.4,93.4c3.5,0.8,7.2,1.2,10.9,1.2c7.2,0,14.2-1.7,20.5-4.6L36.4,12.5V93.4z"/>
</g>
</svg>
